<?xml version="1.0" encoding="utf-8"?>
<!-- Generator: Adobe Illustrator 26.0.0, SVG Export Plug-In . SVG Version: 6.00 Build 0)  -->
<svg version="1.1" id="Layer_1" xmlns="http://www.w3.org/2000/svg" xmlns:xlink="http://www.w3.org/1999/xlink" x="0px" y="0px"
	 viewBox="0 0 636 300" style="enable-background:new 0 0 636 300;" xml:space="preserve">
<style type="text/css">
	.st0{clip-path:url(#SVGID_00000055708525871324082610000016279577598703726747_);}
	.st1{fill:#9C9894;}
	.st2{fill:#FFFFFF;}
	.st3{fill:#F7B548;}
	.st4{fill:#E4ECA1;}
	.st5{fill:#605D5A;}
	.st6{fill:#60A2F0;}
	.st7{fill:#BDD8F9;}
	.st8{fill:#908D89;}
	.st9{fill:#5C2D91;}
	.st10{fill:#98C2F5;}
	.st11{fill:#B3B3B3;}
	.st12{fill:#797672;}
	.st13{fill:#28C2D1;}
</style>
<g>
	<defs>
		<rect id="SVGID_1_" x="57" y="42.4" width="520.6" height="212.4"/>
	</defs>
	<clipPath id="SVGID_00000003080628120172635750000006217022699347294649_">
		<use xlink:href="#SVGID_1_"  style="overflow:visible;"/>
	</clipPath>
	<g style="clip-path:url(#SVGID_00000003080628120172635750000006217022699347294649_);">
		<path class="st1" d="M218.5,218l187.4,11.1c0.7,0,1.3-0.1,2-0.3s1.2-0.6,1.7-1.1c0.5-0.5,0.9-1,1.1-1.6c0.3-0.6,0.4-1.3,0.4-2
			l0.2-136.2c0-0.7-0.1-1.3-0.4-1.9c-0.3-0.6-0.6-1.2-1.1-1.6c-0.5-0.5-1-0.8-1.6-1.1c-0.6-0.2-1.3-0.4-1.9-0.3l-187.4,3.8
			c-1.3,0-2.6,0.6-3.5,1.5c-0.9,0.9-1.4,2.2-1.4,3.5l-0.2,121.3c0,1.3,0.5,2.5,1.4,3.4C216,217.4,217.2,218,218.5,218L218.5,218z"/>
		<path class="st2" d="M400.5,219.7l-0.4-128.9l-177,3.4v116.5L400.5,219.7z"/>
		<path class="st3" d="M270.8,93.3l-47.6,0.9v116.5l47.6,2.4V93.3z"/>
		<path class="st4" d="M246.1,130c2.6,0,5.2-0.8,7.3-2.2c2.2-1.5,3.9-3.5,4.8-5.9c1-2.4,1.3-5.1,0.7-7.6c-0.5-2.6-1.8-4.9-3.6-6.7
			c-1.8-1.8-4.2-3.1-6.7-3.6c-2.6-0.5-5.2-0.2-7.6,0.8c-2.4,1-4.5,2.7-5.9,4.9c-1.4,2.2-2.2,4.7-2.2,7.3c0,1.7,0.3,3.4,1,5
			c0.7,1.6,1.6,3.1,2.9,4.3c1.2,1.2,2.7,2.2,4.3,2.9C242.7,129.6,244.4,130,246.1,130z"/>
		<path class="st5" d="M59.6,149.6l138.2,2.4c1.4,0,2.6-0.7,2.6-2V47.3c0-0.3-0.1-0.7-0.2-1c-0.1-0.3-0.3-0.6-0.6-0.8
			c-0.3-0.2-0.6-0.4-0.9-0.6c-0.3-0.1-0.7-0.2-1-0.2L59.6,51.6c-0.6,0-1.2,0.3-1.6,0.7c-0.4,0.4-0.7,1-0.7,1.7L57,147
			c0,0.7,0.3,1.3,0.8,1.8C58.3,149.3,58.9,149.6,59.6,149.6L59.6,149.6z"/>
		<path class="st6" d="M67.1,142.9l121.6,2.1c0.5,0,0.9-0.3,1.3-0.6c0.3-0.4,0.5-0.8,0.5-1.3l-0.1-90.5c0-0.1,0-0.3-0.1-0.4
			c-0.1-0.1-0.1-0.2-0.2-0.3c-0.1-0.1-0.2-0.2-0.3-0.2c-0.1,0-0.3,0-0.4,0L67.2,57.7c-0.2,0-0.5,0.1-0.6,0.3
			c-0.1,0.1-0.1,0.2-0.2,0.3c0,0.1-0.1,0.2-0.1,0.3L66.1,142c0,0.1,0,0.3,0.1,0.4c0,0.1,0.1,0.2,0.2,0.3c0.1,0.1,0.2,0.2,0.3,0.2
			C66.8,142.9,67,142.9,67.1,142.9z"/>
		<path class="st7" d="M66.3,68.1v-9.6c0-0.2,0.1-0.5,0.2-0.6c0.2-0.2,0.4-0.3,0.6-0.3l122.2-6c0.1,0,0.3,0,0.4,0
			c0.1,0,0.2,0.1,0.3,0.2c0.1,0.1,0.2,0.2,0.2,0.3c0.1,0.1,0.1,0.3,0.1,0.4v10.5L66.3,68.1z"/>
		<path class="st2" d="M87.7,103.4l82.5-1.6c0.2,0,0.3,0,0.4-0.1c0.1-0.1,0.3-0.1,0.4-0.2c0.2-0.2,0.3-0.5,0.3-0.8v-7.2
			c0-0.3-0.1-0.6-0.4-0.9c-0.2-0.2-0.6-0.4-0.9-0.4l-82.5,1.6c-0.2,0-0.3,0-0.4,0.1c-0.1,0.1-0.3,0.1-0.4,0.3
			c-0.1,0.1-0.2,0.2-0.3,0.4c-0.1,0.1-0.1,0.3-0.1,0.4v7.2c0,0.2,0,0.3,0.1,0.5c0.1,0.2,0.2,0.3,0.3,0.4c0.1,0.1,0.3,0.2,0.4,0.3
			C87.4,103.4,87.6,103.4,87.7,103.4z"/>
		<path class="st7" d="M170.1,107.5l-82.5,1.2c-0.2,0-0.3,0-0.4,0.1c-0.1,0.1-0.3,0.1-0.4,0.3c-0.1,0.1-0.2,0.2-0.3,0.4
			c-0.1,0.1-0.1,0.3-0.1,0.4v6.9c0,0.3,0.1,0.6,0.4,0.9c0.2,0.2,0.6,0.4,0.9,0.4l82.5-0.4c0.1,0,0.3,0,0.4-0.1
			c0.1-0.1,0.3-0.1,0.4-0.3c0.1-0.1,0.2-0.2,0.2-0.4c0.1-0.1,0.1-0.3,0.1-0.4v-7.8c0-0.2,0-0.3-0.1-0.5c-0.1-0.2-0.2-0.3-0.3-0.4
			c-0.1-0.1-0.3-0.2-0.4-0.3C170.5,107.5,170.3,107.5,170.1,107.5z"/>
		<path class="st3" d="M157.7,84.8c-1.3,0-2.5-0.5-3.5-1.3c-0.9-0.9-1.5-2.1-1.6-3.3c0-0.6,0.2-1.2,0.5-1.8c0.3-0.6,0.7-1.1,1.1-1.5
			c0.5-0.4,1-0.7,1.6-0.9c0.6-0.2,1.2-0.2,1.8-0.2c1.3,0,2.5,0.5,3.4,1.3c0.9,0.9,1.5,2.1,1.6,3.3c0,0.6-0.2,1.2-0.4,1.8
			c-0.3,0.6-0.7,1-1.1,1.5c-0.5,0.4-1,0.7-1.6,0.9C159,84.7,158.3,84.8,157.7,84.8z"/>
		<path class="st3" d="M127.3,85.6c-1.3,0-2.5-0.5-3.4-1.3c-0.9-0.9-1.5-2.1-1.6-3.3c0-0.6,0.2-1.2,0.5-1.8c0.3-0.6,0.7-1,1.1-1.4
			c0.5-0.4,1-0.7,1.6-0.9c0.6-0.2,1.2-0.3,1.8-0.2c1.3,0,2.5,0.5,3.4,1.3c0.9,0.9,1.5,2.1,1.6,3.3c0,0.6-0.2,1.2-0.5,1.8
			s-0.7,1-1.1,1.4c-0.5,0.4-1,0.7-1.6,0.9C128.6,85.6,127.9,85.7,127.3,85.6z"/>
		<path class="st3" d="M96.9,86.5c-1.3,0-2.5-0.5-3.4-1.3c-0.9-0.9-1.5-2.1-1.6-3.3c0-0.6,0.2-1.2,0.5-1.8c0.3-0.6,0.7-1.1,1.1-1.5
			c0.5-0.4,1-0.7,1.6-0.9c0.6-0.2,1.2-0.3,1.8-0.2c1.3,0,2.5,0.5,3.4,1.3c0.9,0.9,1.5,2.1,1.6,3.3c0,0.6-0.2,1.2-0.5,1.8
			c-0.3,0.6-0.6,1.1-1.1,1.5c-0.5,0.4-1,0.7-1.6,0.9C98.2,86.5,97.6,86.5,96.9,86.5z"/>
		<path class="st8" d="M61.7,101.3c0.4,0,0.9-0.1,1.2-0.4c0.4-0.2,0.7-0.6,0.8-1c0.2-0.4,0.2-0.9,0.1-1.3s-0.3-0.8-0.6-1.1
			c-0.3-0.3-0.7-0.5-1.1-0.6c-0.4-0.1-0.9,0-1.3,0.1c-0.4,0.2-0.8,0.5-1,0.8c-0.2,0.4-0.4,0.8-0.4,1.2c0,0.6,0.2,1.2,0.7,1.6
			C60.6,101.1,61.1,101.3,61.7,101.3z"/>
		<path class="st5" d="M239.5,254c-20.3,1.8-48.7,0.6-63.9-3.8c-3-0.9-4.1-1.8-4.1-3.8l0.2-123.4c0.1-1.1,0.6-2.1,1.4-2.8
			c0.8-0.7,1.9-1.1,3-1l63.9-0.1c0.5,0,1.1,0,1.6,0.2c0.5,0.2,1,0.5,1.4,0.8c0.4,0.4,0.7,0.8,1,1.3c0.2,0.5,0.4,1,0.4,1.6
			l-0.2,127.3C244.1,252.4,243.6,253.6,239.5,254z"/>
		<path class="st2" d="M237.7,241.4l-59.8-3.5c-0.1,0-0.3,0-0.4-0.1c-0.1,0-0.2-0.1-0.3-0.2c-0.1-0.1-0.2-0.2-0.2-0.3
			c0-0.1-0.1-0.2-0.1-0.4l0.2-102.6c0-0.1,0-0.3,0.1-0.4c0.1-0.1,0.1-0.2,0.2-0.3c0.1-0.1,0.2-0.2,0.3-0.2c0.1,0,0.3,0,0.4,0
			l59.8-0.1c0.1,0,0.3,0,0.4,0.1c0.1,0,0.3,0.1,0.4,0.2c0.1,0.1,0.2,0.2,0.2,0.3c0.1,0.1,0.1,0.3,0.1,0.4l-0.2,106.2
			c0,0.1,0,0.3-0.1,0.4c-0.1,0.1-0.1,0.2-0.2,0.3c-0.1,0.1-0.2,0.2-0.3,0.2C238,241.5,237.8,241.4,237.7,241.4z"/>
		<path class="st8" d="M208.4,126.7c0.3-0.1,0.5-0.2,0.7-0.4c0.2-0.2,0.3-0.4,0.4-0.7c0.1-0.3,0-0.5,0-0.8c-0.1-0.3-0.2-0.5-0.4-0.6
			c-0.2-0.2-0.5-0.3-0.7-0.3c-0.3,0-0.5,0-0.8,0.1c-0.2,0.1-0.4,0.3-0.6,0.5c-0.1,0.2-0.2,0.5-0.2,0.8c0.1,0.4,0.3,0.8,0.6,1
			C207.6,126.6,208,126.7,208.4,126.7z"/>
		<path class="st8" d="M184,126.7c0.3-0.1,0.5-0.2,0.7-0.4c0.2-0.2,0.3-0.4,0.4-0.7c0.1-0.3,0.1-0.5,0-0.8c-0.1-0.3-0.2-0.5-0.4-0.7
			c-0.2-0.2-0.5-0.3-0.7-0.3c-0.3,0-0.5,0-0.8,0.1c-0.2,0.1-0.4,0.3-0.6,0.5c-0.1,0.2-0.2,0.5-0.2,0.7c0.1,0.4,0.3,0.7,0.6,1
			C183.2,126.5,183.6,126.7,184,126.7z"/>
		<path class="st9" d="M233.8,169.2c-1.1,7.2-4.8,13.7-10.3,18.5c-5.5,4.7-12.5,7.4-19.8,7.4c-1.5,0.1-2.9,0-4.4-0.3
			c-3-0.5-5.8-2.1-7.9-4.4c-2-2.3-3.2-5.3-3.4-8.3c0.1-3.4,1.5-6.7,3.9-9.1c2.4-2.4,5.7-3.8,9.1-3.8c3.4,0,6.7,1.3,9.2,3.6
			s3.9,5.6,4,9c0,2.2-0.9,4.1-2.8,4.1c-1.9,0.1-3-1.5-3-3.5v-5.5c0-0.4-0.1-0.9-0.2-1.3c-0.2-0.4-0.4-0.8-0.7-1.1
			c-0.3-0.3-0.7-0.6-1.1-0.7c-0.4-0.2-0.8-0.2-1.3-0.2h-4.7c-1.3,0-2.7,0.4-3.8,1c-1.3,0.7-2.3,1.8-3,3.1c-0.7,1.3-1,2.8-1,4.2
			c0.1,1.5,0.6,2.9,1.4,4.1c0.8,1.2,2,2.2,3.3,2.8c1.5,0.7,3.2,0.9,4.8,0.6c1.6-0.3,3.1-1.2,4.2-2.5l0.2-0.2l0.2,0.3
			c0.6,0.8,1.3,1.4,2.1,1.8c0.8,0.4,1.8,0.6,2.7,0.5c1.7-0.1,3.2-0.9,4.3-2.1c1.1-1.3,1.7-2.9,1.6-4.6c0-1.4-0.2-2.9-0.5-4.3
			c-0.6-2.5-1.7-4.8-3.3-6.7c-1.6-2-3.6-3.5-5.9-4.6c-2.3-1-4.8-1.5-7.3-1.5c-2.5,0.1-5,0.8-7.2,2c-3.3,1.8-6,4.7-7.4,8.3
			c-1.4,3.5-1.5,7.5-0.4,11.1c0.8,2.4,2.1,4.6,3.9,6.4c3,3,7.1,4.8,11.4,4.9c0.9,0.1,1.7,0.1,2.6,0.1c6.6,0,13.1-2,18.7-5.6
			c0.1,0,0.1,0.1,0.1,0.1c-2.7,2.9-6,5.2-9.7,6.7c-3.7,1.5-7.7,2.2-11.7,2c-2.6,0.1-5.2-0.4-7.6-1.4c-2.4-1-4.6-2.4-6.4-4.3
			c-1.8-1.8-3.3-4-4.2-6.5c-1-2.4-1.4-5-1.4-7.6c0-3.1,0.7-6.2,2.1-8.9c1.4-2.8,3.4-5.2,5.9-7.1c3.3-2.5,7.4-3.8,11.5-3.8h6.2
			c2.4,0,4.8-0.5,7-1.5c2.2-1,4.2-2.4,5.9-4.2h0h0.1c0.1,0,0.1,0,0.2,0c0,0,0,0,0.1,0c0,0,0,0,0,0.1c0,0,0,0,0,0.1c0,0,0,0,0,0.1
			c-0.3,2.8-1.2,5.5-2.7,7.8c0,0,0,0.1,0,0.1c0,0,0,0.1,0,0.1l0.1,0.1h0.1c2.9-0.7,5.5-2,7.8-3.8c2.3-1.9,4.1-4.2,5.2-6.9
			c0,0,0.1-0.1,0.1-0.1c0.1,0,0.2,0,0.3,0c0.1,0,0.1,0.1,0.1,0.1C233.9,158.7,234.7,164,233.8,169.2z M200.4,176.8
			c-1,0-1.9,0.3-2.7,0.8c-0.8,0.5-1.4,1.3-1.8,2.2c-0.4,0.9-0.5,1.8-0.3,2.8c0.2,0.9,0.6,1.8,1.3,2.5c0.7,0.7,1.5,1.1,2.5,1.3
			s1.9,0.1,2.8-0.3c0.9-0.4,1.6-1,2.2-1.8c0.5-0.8,0.8-1.7,0.8-2.7v-4.5c0-0.1,0-0.2-0.1-0.2c-0.1-0.1-0.1-0.1-0.2-0.1L200.4,176.8z
			"/>
		<path class="st10" d="M352.8,209.7v-31.3l-34.4-1.2v30.8L352.8,209.7z"/>
		<path class="st10" d="M313.2,176.9l-34.9-1.2v30.1l34.9,1.8V176.9z"/>
		<path class="st10" d="M357.9,178.5v31.4l35,1.8v-32L357.9,178.5z"/>
		<path class="st11" d="M349.6,106.3l-71.8,0.4v4.1l71.8-0.4L349.6,106.3z"/>
		<path class="st11" d="M277.9,127.2v2l93.8,0.9v-2L277.9,127.2z"/>
		<path class="st11" d="M277.9,134.9v2l109.9,1.6v-2L277.9,134.9z"/>
		<path class="st11" d="M277.9,142.7v2l94.5,1.8v-2L277.9,142.7z"/>
		<path class="st11" d="M277.9,150.4l0,2l109.9,2.7v-2L277.9,150.4z"/>
		<path class="st11" d="M277.9,158.1l-0.1,2l70.1,2l0.1-2L277.9,158.1z"/>
		<path class="st7" d="M572.5,175.2l-144-3.7c-1.2-0.1-2.4-0.6-3.3-1.5c-0.9-0.9-1.3-2.1-1.4-3.3L424,53.1c0-1.2,0.5-2.4,1.3-3.3
			c0.9-0.9,2-1.4,3.2-1.4l144.1-5.3c0.6,0,1.3,0.1,1.9,0.3c0.9,0.4,1.7,1,2.2,1.8c0.5,0.8,0.8,1.7,0.8,2.7l-0.2,122.6
			c0,0.6-0.1,1.3-0.4,1.8c-0.2,0.6-0.6,1.1-1.1,1.6c-0.5,0.4-1,0.8-1.6,1C573.8,175.1,573.1,175.2,572.5,175.2z"/>
		<path class="st12" d="M577.6,62.2v-15c0-0.6-0.1-1.3-0.4-1.9c-0.4-0.9-1-1.7-1.8-2.2c-0.8-0.5-1.8-0.8-2.7-0.8l-144.1,6.1
			c-1.2,0-2.4,0.5-3.2,1.4c-0.9,0.9-1.3,2-1.3,3.3v14.5L577.6,62.2z"/>
		<path class="st11" d="M432.4,62.1c-0.7,0-1.4-0.3-1.9-0.8c-0.5-0.5-0.8-1.2-0.8-1.9c0-0.3,0.1-0.7,0.2-1c0.1-0.3,0.3-0.6,0.6-0.9
			c0.2-0.2,0.5-0.4,0.9-0.6c0.3-0.1,0.7-0.2,1-0.2c0.7,0,1.4,0.3,1.9,0.8c0.5,0.5,0.8,1.2,0.8,1.9c0,0.3-0.1,0.7-0.2,1
			c-0.1,0.3-0.3,0.6-0.6,0.9c-0.2,0.2-0.5,0.4-0.9,0.6C433.1,62,432.7,62.1,432.4,62.1z"/>
		<path class="st11" d="M441.9,61.6c-0.7,0-1.4-0.3-1.9-0.8c-0.5-0.5-0.8-1.2-0.8-1.9c0-0.3,0.1-0.7,0.2-1c0.1-0.3,0.3-0.6,0.6-0.9
			c0.5-0.5,1.2-0.8,1.9-0.8c0.7,0,1.4,0.3,1.9,0.8c0.5,0.5,0.8,1.2,0.8,1.9c0,0.3-0.1,0.7-0.2,1c-0.1,0.3-0.3,0.6-0.6,0.9
			c-0.2,0.2-0.5,0.4-0.9,0.6C442.6,61.6,442.2,61.6,441.9,61.6z"/>
		<path class="st11" d="M451.5,61.3c-0.7,0-1.4-0.3-1.9-0.8c-0.5-0.5-0.8-1.2-0.8-1.9c0-0.3,0.1-0.7,0.2-1c0.1-0.3,0.3-0.6,0.6-0.9
			c0.2-0.2,0.5-0.4,0.9-0.6c0.3-0.1,0.7-0.2,1-0.2c0.7,0,1.4,0.3,1.9,0.8c0.5,0.5,0.8,1.2,0.8,1.9c0,0.3-0.1,0.7-0.2,1
			c-0.1,0.3-0.3,0.6-0.6,0.9C452.8,61.1,452.2,61.3,451.5,61.3L451.5,61.3z"/>
		<path class="st2" d="M555.5,51.9l-90.7,3.7c-0.4,0-0.7,0.1-1,0.2c-0.3,0.1-0.6,0.3-0.9,0.6c-0.2,0.2-0.4,0.5-0.6,0.9
			c-0.1,0.3-0.2,0.7-0.2,1c0,0.4,0.1,0.7,0.2,1.1c0.1,0.3,0.3,0.6,0.6,0.9c0.3,0.3,0.6,0.5,0.9,0.6c0.3,0.1,0.7,0.2,1.1,0.2
			l90.7-3.8c0.7,0,1.3-0.3,1.8-0.8c0.5-0.5,0.8-1.1,0.8-1.8c0-0.4-0.1-0.7-0.2-1.1c-0.1-0.3-0.3-0.7-0.6-0.9
			C556.9,52.2,556.2,51.9,555.5,51.9z"/>
		<path class="st2" d="M558.5,93.5l-116.3,1.6V84.8l116.3-2.5V93.5z"/>
		<path class="st13" d="M480.4,147.5l-38.4-0.5v-42l38.4-0.3V147.5z"/>
		<path class="st3" d="M558.6,148.8l-73.3-0.5v-43.9l73.3-0.9V148.8z"/>
	</g>
</g>
</svg>
